<svg width="30" height="37" viewBox="0 0 30 37" fill="none" xmlns="http://www.w3.org/2000/svg">
<g filter="url(#filter0_d_7077_13523)">
<path d="M14.8828 0C8.88977 0 4.03075 4.85902 4.03075 10.8521C4.03075 13.212 4.80441 15.3774 6.09038 17.1508C6.11344 17.1933 6.11706 17.2408 6.14329 17.2815L13.378 28.1336C13.7135 28.6368 14.2787 28.9389 14.8828 28.9389C15.4869 28.9389 16.0521 28.6368 16.3877 28.1336L23.6224 17.2815C23.6491 17.2408 23.6522 17.1933 23.6753 17.1508C24.9613 15.3774 25.7349 13.212 25.7349 10.8521C25.7349 4.85902 20.8759 0 14.8828 0ZM14.8828 14.4694C12.8851 14.4694 11.2655 12.8498 11.2655 10.8521C11.2655 8.8544 12.8851 7.23472 14.8828 7.23472C16.8805 7.23472 18.5002 8.8544 18.5002 10.8521C18.5002 12.8498 16.8805 14.4694 14.8828 14.4694Z" fill="url(#paint0_linear_7077_13523)"/>
</g>
<defs>
<filter id="filter0_d_7077_13523" x="0" y="0" width="29.7656" height="37" filterUnits="userSpaceOnUse" color-interpolation-filters="sRGB">
<feFlood flood-opacity="0" result="BackgroundImageFix"/>
<feColorMatrix in="SourceAlpha" type="matrix" values="0 0 0 0 0 0 0 0 0 0 0 0 0 0 0 0 0 0 127 0" result="hardAlpha"/>
<feOffset dy="4"/>
<feGaussianBlur stdDeviation="2"/>
<feComposite in2="hardAlpha" operator="out"/>
<feColorMatrix type="matrix" values="0 0 0 0 0 0 0 0 0 0 0 0 0 0 0 0 0 0 0.25 0"/>
<feBlend mode="normal" in2="BackgroundImageFix" result="effect1_dropShadow_7077_13523"/>
<feBlend mode="normal" in="SourceGraphic" in2="effect1_dropShadow_7077_13523" result="shape"/>
</filter>
<linearGradient id="paint0_linear_7077_13523" x1="14.8828" y1="26.2517" x2="14.1213" y2="5.71162" gradientUnits="userSpaceOnUse">
<stop stop-color="#24D14D"/>
<stop offset="1" stop-color="#FFE500"/>
</linearGradient>
</defs>
</svg>
